<svg width="1024" height="1024" viewBox="0 0 1024 1024" fill="none" xmlns="http://www.w3.org/2000/svg">
<g clip-path="url(#clip0_2_228)">
<circle r="50" fill="white"/>
<circle cx="512" r="50" fill="white"/>
<circle cx="512" cy="512" r="50" fill="white"/>
<circle cy="512" r="50" fill="white"/>
<rect x="-71" y="260.711" width="100" height="100" rx="6" transform="rotate(-45 -71 260.711)" fill="white"/>
<rect x="441" y="195.711" width="100" height="100" rx="6" transform="rotate(-45 441 195.711)" fill="white"/>
<path d="M251.937 -61.0186C253.422 -63.9276 257.578 -63.9276 259.063 -61.0186L274.81 -30.1629C275.391 -29.024 276.481 -28.2316 277.744 -28.0308L311.956 -22.5897C315.181 -22.0768 316.465 -18.1236 314.158 -15.8128L289.678 8.69811C288.775 9.60281 288.358 10.8849 288.557 12.1479L293.954 46.3663C294.463 49.5924 291.1 52.0356 288.19 50.5547L257.314 34.8477C256.174 34.2679 254.826 34.2679 253.686 34.8477L222.811 50.5547C219.9 52.0356 216.537 49.5924 217.046 46.3663L222.443 12.1479C222.642 10.8849 222.225 9.60281 221.322 8.69811L196.842 -15.8128C194.535 -18.1236 195.819 -22.0768 199.044 -22.5897L233.256 -28.0308C234.519 -28.2316 235.609 -29.024 236.19 -30.1629L251.937 -61.0186Z" fill="white"/>
<path d="M251.937 450.981C253.422 448.072 257.578 448.072 259.063 450.981L274.81 481.837C275.391 482.976 276.481 483.768 277.744 483.969L311.956 489.41C315.181 489.923 316.465 493.876 314.158 496.187L289.678 520.698C288.775 521.603 288.358 522.885 288.557 524.148L293.954 558.366C294.463 561.592 291.1 564.036 288.19 562.555L257.314 546.848C256.174 546.268 254.826 546.268 253.686 546.848L222.811 562.555C219.9 564.036 216.537 561.592 217.046 558.366L222.443 524.148C222.642 522.885 222.225 521.603 221.322 520.698L196.842 496.187C194.535 493.876 195.819 489.923 199.044 489.41L233.256 483.969C234.519 483.768 235.609 482.976 236.19 481.837L251.937 450.981Z" fill="white"/>
<path d="M169.304 127C171.613 123 177.387 123 179.696 127L236.421 225.25C238.73 229.25 235.843 234.25 231.225 234.25H117.775C113.157 234.25 110.27 229.25 112.579 225.25L169.304 127Z" fill="white"/>
<path d="M377.431 308.972C382.382 311.83 385.431 317.112 385.431 322.828L385.431 370.853C385.431 376.569 382.382 381.851 377.431 384.709L335.841 408.722C330.89 411.58 324.791 411.58 319.841 408.722L278.25 384.709C273.3 381.851 270.25 376.569 270.25 370.853L270.25 322.828C270.25 317.112 273.3 311.83 278.25 308.972L319.841 284.959C324.791 282.101 330.89 282.101 335.841 284.959L377.431 308.972Z" fill="white"/>
</g>
<g clip-path="url(#clip1_2_228)">
<circle cx="512" r="50" fill="white"/>
<circle cx="1024" r="50" fill="white"/>
<circle cx="1024" cy="512" r="50" fill="white"/>
<circle cx="512" cy="512" r="50" fill="white"/>
<rect x="441" y="190.711" width="100" height="100" rx="6" transform="rotate(-45 441 190.711)" fill="white"/>
<rect x="953" y="260.711" width="100" height="100" rx="6" transform="rotate(-45 953 260.711)" fill="white"/>
<path d="M763.937 -61.0186C765.422 -63.9276 769.578 -63.9276 771.063 -61.0186L786.81 -30.1629C787.391 -29.024 788.481 -28.2316 789.744 -28.0308L823.956 -22.5897C827.181 -22.0768 828.465 -18.1236 826.158 -15.8128L801.678 8.69811C800.775 9.60281 800.358 10.8849 800.557 12.1479L805.954 46.3663C806.463 49.5924 803.1 52.0356 800.19 50.5547L769.314 34.8477C768.174 34.2679 766.826 34.2679 765.686 34.8477L734.811 50.5547C731.9 52.0356 728.537 49.5924 729.046 46.3663L734.443 12.1479C734.642 10.8849 734.225 9.60281 733.322 8.69811L708.842 -15.8128C706.535 -18.1236 707.819 -22.0768 711.044 -22.5897L745.256 -28.0308C746.519 -28.2316 747.609 -29.024 748.19 -30.1629L763.937 -61.0186Z" fill="white"/>
<path d="M763.937 450.981C765.422 448.072 769.578 448.072 771.063 450.981L786.81 481.837C787.391 482.976 788.481 483.768 789.744 483.969L823.956 489.41C827.181 489.923 828.465 493.876 826.158 496.187L801.678 520.698C800.775 521.603 800.358 522.885 800.557 524.148L805.954 558.366C806.463 561.592 803.1 564.036 800.19 562.555L769.314 546.848C768.174 546.268 766.826 546.268 765.686 546.848L734.811 562.555C731.9 564.036 728.537 561.592 729.046 558.366L734.443 524.148C734.642 522.885 734.225 521.603 733.322 520.698L708.842 496.187C706.535 493.876 707.819 489.923 711.044 489.41L745.256 483.969C746.519 483.768 747.609 482.976 748.19 481.837L763.937 450.981Z" fill="white"/>
<path d="M620.576 369.009C616.536 366.77 616.435 360.997 620.394 358.618L717.634 300.179C721.593 297.8 726.643 300.599 726.724 305.217L728.713 418.649C728.794 423.267 723.845 426.241 719.805 424.002L620.576 369.009Z" fill="white"/>
<path d="M798.87 157.723C801.641 152.723 806.869 149.581 812.584 149.481L860.602 148.639C866.317 148.538 871.652 151.495 874.596 156.394L899.334 197.558C902.279 202.457 902.385 208.555 899.615 213.555L876.335 255.561C873.564 260.56 868.337 263.702 862.621 263.802L814.604 264.644C808.888 264.745 803.554 261.788 800.609 256.889L775.871 215.725C772.927 210.826 772.82 204.728 775.591 199.728L798.87 157.723Z" fill="white"/>
</g>
<g clip-path="url(#clip2_2_228)">
<circle cy="512" r="50" fill="white"/>
<circle cx="512" cy="512" r="50" fill="white"/>
<circle cx="512" cy="1024" r="50" fill="white"/>
<circle cy="1024" r="50" fill="white"/>
<rect x="-71" y="772.711" width="100" height="100" rx="6" transform="rotate(-45 -71 772.711)" fill="white"/>
<rect x="441" y="707.711" width="100" height="100" rx="6" transform="rotate(-45 441 707.711)" fill="white"/>
<path d="M251.937 450.981C253.422 448.072 257.578 448.072 259.063 450.981L274.81 481.837C275.391 482.976 276.481 483.768 277.744 483.969L311.956 489.41C315.181 489.923 316.465 493.876 314.158 496.187L289.678 520.698C288.775 521.603 288.358 522.885 288.557 524.148L293.954 558.366C294.463 561.592 291.1 564.036 288.19 562.555L257.314 546.848C256.174 546.268 254.826 546.268 253.686 546.848L222.811 562.555C219.9 564.036 216.537 561.592 217.046 558.366L222.443 524.148C222.642 522.885 222.225 521.603 221.322 520.698L196.842 496.187C194.535 493.876 195.819 489.923 199.044 489.41L233.256 483.969C234.519 483.768 235.609 482.976 236.19 481.837L251.937 450.981Z" fill="white"/>
<path d="M251.937 962.981C253.422 960.072 257.578 960.072 259.063 962.981L274.81 993.837C275.391 994.976 276.481 995.768 277.744 995.969L311.956 1001.41C315.181 1001.92 316.465 1005.88 314.158 1008.19L289.678 1032.7C288.775 1033.6 288.358 1034.88 288.557 1036.15L293.954 1070.37C294.463 1073.59 291.1 1076.04 288.19 1074.55L257.314 1058.85C256.174 1058.27 254.826 1058.27 253.686 1058.85L222.811 1074.55C219.9 1076.04 216.537 1073.59 217.046 1070.37L222.443 1036.15C222.642 1034.88 222.225 1033.6 221.322 1032.7L196.842 1008.19C194.535 1005.88 195.819 1001.92 199.044 1001.41L233.256 995.969C234.519 995.768 235.609 994.976 236.19 993.837L251.937 962.981Z" fill="white"/>
<path d="M169.304 639C171.613 635 177.387 635 179.696 639L236.421 737.25C238.73 741.25 235.843 746.25 231.225 746.25H117.775C113.157 746.25 110.27 741.25 112.579 737.25L169.304 639Z" fill="white"/>
<path d="M377.431 820.972C382.382 823.83 385.431 829.112 385.431 834.828L385.431 882.853C385.431 888.569 382.382 893.851 377.431 896.709L335.841 920.722C330.89 923.58 324.791 923.58 319.841 920.722L278.25 896.709C273.3 893.851 270.25 888.569 270.25 882.853L270.25 834.828C270.25 829.112 273.3 823.83 278.25 820.972L319.841 796.959C324.791 794.101 330.89 794.101 335.841 796.959L377.431 820.972Z" fill="white"/>
</g>
<g clip-path="url(#clip3_2_228)">
<circle cx="512" cy="512" r="50" fill="white"/>
<circle cx="1024" cy="512" r="50" fill="white"/>
<circle cx="1024" cy="1024" r="50" fill="white"/>
<circle cx="512" cy="1024" r="50" fill="white"/>
<rect x="441" y="702.711" width="100" height="100" rx="6" transform="rotate(-45 441 702.711)" fill="white"/>
<rect x="953" y="772.711" width="100" height="100" rx="6" transform="rotate(-45 953 772.711)" fill="white"/>
<path d="M763.937 450.981C765.422 448.072 769.578 448.072 771.063 450.981L786.81 481.837C787.391 482.976 788.481 483.768 789.744 483.969L823.956 489.41C827.181 489.923 828.465 493.876 826.158 496.187L801.678 520.698C800.775 521.603 800.358 522.885 800.557 524.148L805.954 558.366C806.463 561.592 803.1 564.036 800.19 562.555L769.314 546.848C768.174 546.268 766.826 546.268 765.686 546.848L734.811 562.555C731.9 564.036 728.537 561.592 729.046 558.366L734.443 524.148C734.642 522.885 734.225 521.603 733.322 520.698L708.842 496.187C706.535 493.876 707.819 489.923 711.044 489.41L745.256 483.969C746.519 483.768 747.609 482.976 748.19 481.837L763.937 450.981Z" fill="white"/>
<path d="M763.937 962.981C765.422 960.072 769.578 960.072 771.063 962.981L786.81 993.837C787.391 994.976 788.481 995.768 789.744 995.969L823.956 1001.41C827.181 1001.92 828.465 1005.88 826.158 1008.19L801.678 1032.7C800.775 1033.6 800.358 1034.88 800.557 1036.15L805.954 1070.37C806.463 1073.59 803.1 1076.04 800.19 1074.55L769.314 1058.85C768.174 1058.27 766.826 1058.27 765.686 1058.85L734.811 1074.55C731.9 1076.04 728.537 1073.59 729.046 1070.37L734.443 1036.15C734.642 1034.88 734.225 1033.6 733.322 1032.7L708.842 1008.19C706.535 1005.88 707.819 1001.92 711.044 1001.41L745.256 995.969C746.519 995.768 747.609 994.976 748.19 993.837L763.937 962.981Z" fill="white"/>
<path d="M620.576 881.009C616.536 878.77 616.435 872.997 620.394 870.618L717.634 812.179C721.593 809.8 726.643 812.599 726.724 817.217L728.713 930.649C728.794 935.267 723.845 938.241 719.805 936.002L620.576 881.009Z" fill="white"/>
<path d="M798.87 669.723C801.641 664.723 806.869 661.581 812.584 661.481L860.602 660.639C866.317 660.538 871.652 663.495 874.596 668.394L899.334 709.558C902.279 714.457 902.385 720.555 899.615 725.555L876.335 767.561C873.564 772.56 868.337 775.702 862.621 775.802L814.604 776.644C808.888 776.745 803.554 773.788 800.609 768.889L775.871 727.725C772.927 722.826 772.82 716.728 775.591 711.728L798.87 669.723Z" fill="white"/>
</g>
<defs>
<clipPath id="clip0_2_228">
<rect width="512" height="512" fill="white"/>
</clipPath>
<clipPath id="clip1_2_228">
<rect width="512" height="512" fill="white" transform="translate(512)"/>
</clipPath>
<clipPath id="clip2_2_228">
<rect width="512" height="512" fill="white" transform="translate(0 512)"/>
</clipPath>
<clipPath id="clip3_2_228">
<rect width="512" height="512" fill="white" transform="translate(512 512)"/>
</clipPath>
</defs>
</svg>
