<?xml version="1.0" encoding="UTF-8" standalone="no"?>
<svg
   xmlns:dc="http://purl.org/dc/elements/1.1/"
   xmlns:cc="http://creativecommons.org/ns#"
   xmlns:rdf="http://www.w3.org/1999/02/22-rdf-syntax-ns#"
   xmlns:svg="http://www.w3.org/2000/svg"
   xmlns="http://www.w3.org/2000/svg"
   width="500"
   height="500"
   viewBox="0 0 500 500"
   preserveAspectRatio="none"
   version="1.1">
  <defs />
  <mask id="mask" maskUnits="objectBoundingBox" maskContentUnits="objectBoundingBox">
  <path
         fill="#fff"
         d="M 0,0 0.02,0.02 0.04,0 0.06,0.02 0.08,0 0.1,0.02 0.12,0 0.14,0.02 0.16,0 0.18,0.02 0.2,0 l 0.02,0.02 0.02,-0.02 0.02,0.02 0.02,-0.02 0.02,0.02 0.02,-0.02 0.02,0.02 0.02,-0.02 0.02,0.02 0.02,-0.02 0.02,0.02 0.02,-0.02 0.02,0.02 0.02,-0.02 0.02,0.02 0.02,-0.02 0.02,0.02 0.02,-0.02 0.02,0.02 0.02,-0.02 0.02,0.02 0.02,-0.02 0.02,0.02 0.02,-0.02 0.02,0.02 0.02,-0.02 0.02,0.02 0.02,-0.02 0.02,0.02 0.02,-0.02 0.02,0.02 0.02,-0.02 0.02,0.02 0.02,-0.02 0.02,0.02 0.02,-0.02 0.02,0.02 0.02,-0.02 0.02,0.02 0.02,-0.02 0,1 -0.02,-0.02 -0.02,0.02 -0.02,-0.02 -0.02,0.02 -0.02,-0.02 -0.02,0.02 -0.02,-0.02 -0.02,0.02 -0.02,-0.02 -0.02,0.02 -0.02,-0.02 -0.02,0.02 -0.02,-0.02 -0.02,0.02 -0.02,-0.02 -0.02,0.02 -0.02,-0.02 -0.02,0.02 -0.02,-0.02 -0.02,0.02 -0.02,-0.02 -0.02,0.02 -0.02,-0.02 -0.02,0.02 -0.02,-0.02 -0.02,0.02 -0.02,-0.02 -0.02,0.02 -0.02,-0.02 -0.02,0.02 -0.02,-0.02 -0.02,0.02 -0.02,-0.02 -0.02,0.02 -0.02,-0.02 -0.02,0.02 -0.02,-0.02 -0.02,0.02 -0.02,-0.02 -0.02,0.02 L 0.18,0.98 0.16,1 0.14,0.98 0.12,1 0.1,0.98 0.08,1 0.06,0.98 0.04,1 0.02,0.98 0,1 z" />
  </mask>
  <g>
    <path
       fill="#000"
       d="M 0,0 10,10 20,0 30,10 40,0 50,10 60,0 70,10 80,0 90,10 100,0 l 10,10 10,-10 10,10 10,-10 10,10 10,-10 10,10 10,-10 10,10 10,-10 10,10 10,-10 10,10 10,-10 10,10 10,-10 10,10 10,-10 10,10 10,-10 10,10 10,-10 10,10 10,-10 10,10 10,-10 10,10 10,-10 10,10 10,-10 10,10 10,-10 10,10 10,-10 10,10 10,-10 10,10 10,-10 10,10 10,-10 0,500 -10,-10 -10,10 -10,-10 -10,10 -10,-10 -10,10 -10,-10 -10,10 -10,-10 -10,10 -10,-10 -10,10 -10,-10 -10,10 -10,-10 -10,10 -10,-10 -10,10 -10,-10 -10,10 -10,-10 -10,10 -10,-10 -10,10 -10,-10 -10,10 -10,-10 -10,10 -10,-10 -10,10 -10,-10 -10,10 -10,-10 -10,10 -10,-10 -10,10 -10,-10 -10,10 -10,-10 -10,10 L 90,490 80,500 70,490 60,500 50,490 40,500 30,490 20,500 10,490 0,500 z" />
  </g>
</svg>
